{
	"patcher" : 	{
		"fileversion" : 1,
		"appversion" : 		{
			"major" : 8,
			"minor" : 0,
			"revision" : 8,
			"architecture" : "x64",
			"modernui" : 1
		}
,
		"classnamespace" : "dsp.gen",
		"rect" : [ 754.0, 79.0, 652.0, 783.0 ],
		"bglocked" : 0,
		"openinpresentation" : 0,
		"default_fontsize" : 12.0,
		"default_fontface" : 0,
		"default_fontname" : "Arial",
		"gridonopen" : 1,
		"gridsize" : [ 15.0, 15.0 ],
		"gridsnaponopen" : 1,
		"objectsnaponopen" : 1,
		"statusbarvisible" : 2,
		"toolbarvisible" : 1,
		"lefttoolbarpinned" : 0,
		"toptoolbarpinned" : 0,
		"righttoolbarpinned" : 0,
		"bottomtoolbarpinned" : 0,
		"toolbars_unpinned_last_save" : 0,
		"tallnewobj" : 0,
		"boxanimatetime" : 200,
		"enablehscroll" : 1,
		"enablevscroll" : 1,
		"devicewidth" : 0.0,
		"description" : "",
		"digest" : "",
		"tags" : "",
		"style" : "",
		"subpatcher_template" : "",
		"boxes" : [ 			{
				"box" : 				{
					"id" : "obj-12",
					"maxclass" : "newobj",
					"numinlets" : 1,
					"numoutlets" : 0,
					"patching_rect" : [ 424.0, 735.0, 176.0, 22.0 ],
					"text" : "out 2 @comment \"lfo wave out\""
				}

			}
, 			{
				"box" : 				{
					"id" : "obj-11",
					"linecount" : 3,
					"maxclass" : "newobj",
					"numinlets" : 0,
					"numoutlets" : 1,
					"outlettype" : [ "" ],
					"patching_rect" : [ 581.0, 30.0, 116.0, 49.0 ],
					"text" : "in 5 @comment depth @min 0 @max 1 @default 1"
				}

			}
, 			{
				"box" : 				{
					"id" : "obj-10",
					"linecount" : 4,
					"maxclass" : "newobj",
					"numinlets" : 0,
					"numoutlets" : 1,
					"outlettype" : [ "" ],
					"patching_rect" : [ 443.25, 30.0, 105.0, 62.0 ],
					"text" : "in 4 @comment \"duty cycle\" @min 0 @max 1 @default 0.5"
				}

			}
, 			{
				"box" : 				{
					"id" : "obj-9",
					"linecount" : 4,
					"maxclass" : "newobj",
					"numinlets" : 0,
					"numoutlets" : 1,
					"outlettype" : [ "" ],
					"patching_rect" : [ 305.5, 30.0, 114.0, 62.0 ],
					"text" : "in 3 @comment \"wave select\" @min 0 @max 3 @default 0"
				}

			}
, 			{
				"box" : 				{
					"id" : "obj-8",
					"linecount" : 2,
					"maxclass" : "newobj",
					"numinlets" : 0,
					"numoutlets" : 1,
					"outlettype" : [ "" ],
					"patching_rect" : [ 167.75, 75.0, 120.0, 35.0 ],
					"text" : "in 2 @comment \"sync with phasor\""
				}

			}
, 			{
				"box" : 				{
					"id" : "obj-7",
					"maxclass" : "newobj",
					"numinlets" : 1,
					"numoutlets" : 0,
					"patching_rect" : [ 30.0, 735.0, 163.0, 22.0 ],
					"text" : "out 1 @comment \"signal out\""
				}

			}
, 			{
				"box" : 				{
					"code" : "//==================================================\r\n// LFO Wave Selector\r\n// \r\n// by Timo Hoogland (c) 2019\r\n//==================================================\r\n\r\n// sync with phasor\r\ns = in2;\r\n// wave selected, only change after cycle\r\nw = sah(in3, (s + .5) % 1, 0.5);\r\n// duty cycle/pulse-width\r\nd = in4;\r\n// modulation depth\r\na = in5;\r\n\r\n\r\nlfo = 0;\r\n\r\nif (w == 0){\r\n\t// cosine\r\n\tlfo = cycle(s, index=\"phase\") * -.5 + .5;\r\n} else if (w == 1){\r\n\t// ramp down\r\n\tlfo = s * -1 + 1;\r\n} else if (w == 2){\r\n\t// triangle, adjustable duty cycle\r\n\tlfo = triangle(s, d);\r\n} else if (w == 3){\r\n\t// square, adjustable pulse width\r\n\tlfo = s > d;\r\n}\r\n\r\nout1 = in1 * (lfo * a + (1 - a));\r\nout2 = lfo;",
					"fontface" : 0,
					"fontname" : "<Monospaced>",
					"fontsize" : 12.0,
					"id" : "obj-6",
					"maxclass" : "codebox",
					"numinlets" : 5,
					"numoutlets" : 2,
					"outlettype" : [ "", "" ],
					"patching_rect" : [ 30.0, 120.0, 570.0, 585.0 ]
				}

			}
, 			{
				"box" : 				{
					"id" : "obj-5",
					"maxclass" : "newobj",
					"numinlets" : 0,
					"numoutlets" : 1,
					"outlettype" : [ "" ],
					"patching_rect" : [ 30.0, 30.0, 149.0, 22.0 ],
					"text" : "in 1 @comment \"signal in\""
				}

			}
 ],
		"lines" : [ 			{
				"patchline" : 				{
					"destination" : [ "obj-6", 3 ],
					"source" : [ "obj-10", 0 ]
				}

			}
, 			{
				"patchline" : 				{
					"destination" : [ "obj-6", 4 ],
					"source" : [ "obj-11", 0 ]
				}

			}
, 			{
				"patchline" : 				{
					"destination" : [ "obj-6", 0 ],
					"source" : [ "obj-5", 0 ]
				}

			}
, 			{
				"patchline" : 				{
					"destination" : [ "obj-12", 0 ],
					"source" : [ "obj-6", 1 ]
				}

			}
, 			{
				"patchline" : 				{
					"destination" : [ "obj-7", 0 ],
					"source" : [ "obj-6", 0 ]
				}

			}
, 			{
				"patchline" : 				{
					"destination" : [ "obj-6", 1 ],
					"source" : [ "obj-8", 0 ]
				}

			}
, 			{
				"patchline" : 				{
					"destination" : [ "obj-6", 2 ],
					"source" : [ "obj-9", 0 ]
				}

			}
 ]
	}

}
